<mxfile host="app.diagrams.net" agent="Mozilla/5.0 (Windows NT 10.0; Win64; x64) AppleWebKit/537.36 (KHTML, like Gecko) Chrome/131.0.0.0 Safari/537.36 Edg/131.0.0.0" version="25.0.3">
  <diagram name="第 1 页" id="XQgxYuvdS9LbdZhMKGgs">
    <mxGraphModel dx="1425" dy="765" grid="1" gridSize="10" guides="1" tooltips="1" connect="1" arrows="1" fold="1" page="1" pageScale="1" pageWidth="827" pageHeight="1169" math="0" shadow="0">
      <root>
        <mxCell id="0" />
        <mxCell id="1" parent="0" />
        <mxCell id="khxLaiU0CGnUCuCT9QuH-30" value="" style="rounded=0;whiteSpace=wrap;html=1;" vertex="1" parent="1">
          <mxGeometry x="360" y="980" width="680" height="60" as="geometry" />
        </mxCell>
        <mxCell id="khxLaiU0CGnUCuCT9QuH-9" style="edgeStyle=orthogonalEdgeStyle;rounded=0;orthogonalLoop=1;jettySize=auto;html=1;exitX=0.5;exitY=1;exitDx=0;exitDy=0;" edge="1" parent="1" source="khxLaiU0CGnUCuCT9QuH-1" target="khxLaiU0CGnUCuCT9QuH-3">
          <mxGeometry relative="1" as="geometry" />
        </mxCell>
        <mxCell id="khxLaiU0CGnUCuCT9QuH-1" value="question" style="ellipse;whiteSpace=wrap;html=1;" vertex="1" parent="1">
          <mxGeometry x="360" y="570" width="120" height="35" as="geometry" />
        </mxCell>
        <mxCell id="khxLaiU0CGnUCuCT9QuH-10" style="edgeStyle=orthogonalEdgeStyle;rounded=0;orthogonalLoop=1;jettySize=auto;html=1;" edge="1" parent="1" source="khxLaiU0CGnUCuCT9QuH-3" target="khxLaiU0CGnUCuCT9QuH-8">
          <mxGeometry relative="1" as="geometry" />
        </mxCell>
        <mxCell id="khxLaiU0CGnUCuCT9QuH-3" value="Question Task Manager&lt;div&gt;&lt;br&gt;&lt;/div&gt;&lt;div&gt;&lt;br&gt;&lt;/div&gt;&lt;div&gt;&lt;br&gt;&lt;/div&gt;&lt;div&gt;&lt;br&gt;&lt;/div&gt;&lt;div&gt;&lt;br&gt;&lt;/div&gt;&lt;div&gt;&lt;br&gt;&lt;/div&gt;&lt;div&gt;&lt;br&gt;&lt;/div&gt;&lt;div&gt;&lt;br&gt;&lt;/div&gt;" style="rounded=0;whiteSpace=wrap;html=1;" vertex="1" parent="1">
          <mxGeometry x="360" y="650" width="120" height="150" as="geometry" />
        </mxCell>
        <mxCell id="khxLaiU0CGnUCuCT9QuH-4" value="语义补充" style="rounded=0;whiteSpace=wrap;html=1;" vertex="1" parent="1">
          <mxGeometry x="370" y="690" width="100" height="20" as="geometry" />
        </mxCell>
        <mxCell id="khxLaiU0CGnUCuCT9QuH-25" style="edgeStyle=orthogonalEdgeStyle;rounded=0;orthogonalLoop=1;jettySize=auto;html=1;" edge="1" parent="1" source="khxLaiU0CGnUCuCT9QuH-5" target="khxLaiU0CGnUCuCT9QuH-24">
          <mxGeometry relative="1" as="geometry" />
        </mxCell>
        <mxCell id="khxLaiU0CGnUCuCT9QuH-5" value="身份识别" style="rounded=0;whiteSpace=wrap;html=1;" vertex="1" parent="1">
          <mxGeometry x="370" y="717" width="100" height="20" as="geometry" />
        </mxCell>
        <mxCell id="khxLaiU0CGnUCuCT9QuH-6" value="意图识别" style="rounded=0;whiteSpace=wrap;html=1;" vertex="1" parent="1">
          <mxGeometry x="370" y="744" width="100" height="20" as="geometry" />
        </mxCell>
        <mxCell id="khxLaiU0CGnUCuCT9QuH-7" value="会话上下文" style="rounded=0;whiteSpace=wrap;html=1;" vertex="1" parent="1">
          <mxGeometry x="370" y="770" width="100" height="20" as="geometry" />
        </mxCell>
        <mxCell id="khxLaiU0CGnUCuCT9QuH-14" style="edgeStyle=orthogonalEdgeStyle;rounded=0;orthogonalLoop=1;jettySize=auto;html=1;exitX=0.5;exitY=0;exitDx=0;exitDy=0;entryX=0.5;entryY=0;entryDx=0;entryDy=0;" edge="1" parent="1" source="khxLaiU0CGnUCuCT9QuH-8" target="khxLaiU0CGnUCuCT9QuH-11">
          <mxGeometry relative="1" as="geometry" />
        </mxCell>
        <mxCell id="khxLaiU0CGnUCuCT9QuH-8" value="" style="rounded=0;whiteSpace=wrap;html=1;" vertex="1" parent="1">
          <mxGeometry x="360" y="810" width="120" height="140" as="geometry" />
        </mxCell>
        <mxCell id="khxLaiU0CGnUCuCT9QuH-13" style="edgeStyle=orthogonalEdgeStyle;rounded=0;orthogonalLoop=1;jettySize=auto;html=1;exitX=0.5;exitY=1;exitDx=0;exitDy=0;entryX=0.5;entryY=0;entryDx=0;entryDy=0;" edge="1" parent="1" source="khxLaiU0CGnUCuCT9QuH-11" target="khxLaiU0CGnUCuCT9QuH-12">
          <mxGeometry relative="1" as="geometry" />
        </mxCell>
        <mxCell id="khxLaiU0CGnUCuCT9QuH-11" value="会话日志管理" style="rounded=0;whiteSpace=wrap;html=1;" vertex="1" parent="1">
          <mxGeometry x="370" y="820" width="100" height="20" as="geometry" />
        </mxCell>
        <mxCell id="khxLaiU0CGnUCuCT9QuH-17" style="edgeStyle=orthogonalEdgeStyle;rounded=0;orthogonalLoop=1;jettySize=auto;html=1;exitX=0.5;exitY=1;exitDx=0;exitDy=0;" edge="1" parent="1" source="khxLaiU0CGnUCuCT9QuH-12" target="khxLaiU0CGnUCuCT9QuH-15">
          <mxGeometry relative="1" as="geometry" />
        </mxCell>
        <mxCell id="khxLaiU0CGnUCuCT9QuH-12" value="关键词查询" style="rounded=0;whiteSpace=wrap;html=1;" vertex="1" parent="1">
          <mxGeometry x="370" y="852" width="100" height="20" as="geometry" />
        </mxCell>
        <mxCell id="khxLaiU0CGnUCuCT9QuH-15" value="会话问题统计" style="rounded=0;whiteSpace=wrap;html=1;" vertex="1" parent="1">
          <mxGeometry x="370" y="885" width="100" height="20" as="geometry" />
        </mxCell>
        <mxCell id="khxLaiU0CGnUCuCT9QuH-18" value="有效性反馈" style="rounded=0;whiteSpace=wrap;html=1;" vertex="1" parent="1">
          <mxGeometry x="370" y="917" width="100" height="20" as="geometry" />
        </mxCell>
        <mxCell id="khxLaiU0CGnUCuCT9QuH-19" style="edgeStyle=orthogonalEdgeStyle;rounded=0;orthogonalLoop=1;jettySize=auto;html=1;exitX=0.5;exitY=1;exitDx=0;exitDy=0;entryX=0.507;entryY=-0.083;entryDx=0;entryDy=0;entryPerimeter=0;" edge="1" parent="1" source="khxLaiU0CGnUCuCT9QuH-15" target="khxLaiU0CGnUCuCT9QuH-18">
          <mxGeometry relative="1" as="geometry" />
        </mxCell>
        <mxCell id="khxLaiU0CGnUCuCT9QuH-20" style="edgeStyle=orthogonalEdgeStyle;rounded=0;orthogonalLoop=1;jettySize=auto;html=1;exitX=0.5;exitY=0;exitDx=0;exitDy=0;entryX=0.493;entryY=0.128;entryDx=0;entryDy=0;entryPerimeter=0;" edge="1" parent="1" source="khxLaiU0CGnUCuCT9QuH-8" target="khxLaiU0CGnUCuCT9QuH-11">
          <mxGeometry relative="1" as="geometry" />
        </mxCell>
        <mxCell id="khxLaiU0CGnUCuCT9QuH-21" value="Answer Manager&lt;br&gt;&lt;div&gt;&lt;br&gt;&lt;/div&gt;&lt;div&gt;&lt;br&gt;&lt;/div&gt;&lt;div&gt;&lt;br&gt;&lt;/div&gt;&lt;div&gt;&lt;br&gt;&lt;/div&gt;&lt;div&gt;&lt;br&gt;&lt;/div&gt;&lt;div&gt;&lt;br&gt;&lt;/div&gt;&lt;div&gt;&lt;br&gt;&lt;/div&gt;&lt;div&gt;&lt;br&gt;&lt;/div&gt;" style="rounded=0;whiteSpace=wrap;html=1;" vertex="1" parent="1">
          <mxGeometry x="360" y="1080" width="680" height="140" as="geometry" />
        </mxCell>
        <mxCell id="khxLaiU0CGnUCuCT9QuH-22" style="edgeStyle=orthogonalEdgeStyle;rounded=0;orthogonalLoop=1;jettySize=auto;html=1;exitX=0.5;exitY=1;exitDx=0;exitDy=0;entryX=0.501;entryY=0.016;entryDx=0;entryDy=0;entryPerimeter=0;" edge="1" parent="1" source="khxLaiU0CGnUCuCT9QuH-18" target="khxLaiU0CGnUCuCT9QuH-21">
          <mxGeometry relative="1" as="geometry">
            <Array as="points">
              <mxPoint x="420" y="1060" />
              <mxPoint x="701" y="1060" />
            </Array>
          </mxGeometry>
        </mxCell>
        <mxCell id="khxLaiU0CGnUCuCT9QuH-24" value="身份数据库" style="rounded=0;whiteSpace=wrap;html=1;" vertex="1" parent="1">
          <mxGeometry x="520" y="675.5" width="20" height="103" as="geometry" />
        </mxCell>
        <mxCell id="khxLaiU0CGnUCuCT9QuH-26" value="&lt;div&gt;survey&lt;/div&gt;" style="ellipse;whiteSpace=wrap;html=1;" vertex="1" parent="1">
          <mxGeometry x="540" y="567" width="120" height="35" as="geometry" />
        </mxCell>
        <mxCell id="khxLaiU0CGnUCuCT9QuH-28" value="&lt;div&gt;notification&lt;/div&gt;" style="ellipse;whiteSpace=wrap;html=1;" vertex="1" parent="1">
          <mxGeometry x="720" y="567" width="120" height="35" as="geometry" />
        </mxCell>
        <mxCell id="khxLaiU0CGnUCuCT9QuH-29" value="free" style="ellipse;whiteSpace=wrap;html=1;" vertex="1" parent="1">
          <mxGeometry x="910" y="567" width="120" height="35" as="geometry" />
        </mxCell>
      </root>
    </mxGraphModel>
  </diagram>
</mxfile>
